<svg xmlns="http://www.w3.org/2000/svg" xmlns:xlink="http://www.w3.org/1999/xlink" width="500" zoomAndPan="magnify" viewBox="0 0 375 374.999991" height="500" preserveAspectRatio="xMidYMid meet" version="1.0"><defs><g/><clipPath id="607e41c03b"><path d="M 219 66.792969 L 258.246094 66.792969 L 258.246094 129 L 219 129 Z M 219 66.792969 " clip-rule="nonzero"/></clipPath><clipPath id="235fdfe537"><path d="M 116.496094 66.792969 L 220 66.792969 L 220 129 L 116.496094 129 Z M 116.496094 66.792969 " clip-rule="nonzero"/></clipPath><clipPath id="adcf8f1b2b"><path d="M 219 91 L 258.246094 91 L 258.246094 142 L 219 142 Z M 219 91 " clip-rule="nonzero"/></clipPath><clipPath id="1a27b7a3fc"><path d="M 116.496094 91 L 220 91 L 220 142 L 116.496094 142 Z M 116.496094 91 " clip-rule="nonzero"/></clipPath><clipPath id="89696746cc"><path d="M 219 112 L 258.246094 112 L 258.246094 155 L 219 155 Z M 219 112 " clip-rule="nonzero"/></clipPath><clipPath id="e14fa5b81f"><path d="M 116.496094 112 L 220 112 L 220 155 L 116.496094 155 Z M 116.496094 112 " clip-rule="nonzero"/></clipPath><clipPath id="89d14a7569"><path d="M 219 132 L 258.246094 132 L 258.246094 167 L 219 167 Z M 219 132 " clip-rule="nonzero"/></clipPath><clipPath id="a01223514a"><path d="M 116.496094 132 L 220 132 L 220 167 L 116.496094 167 Z M 116.496094 132 " clip-rule="nonzero"/></clipPath><clipPath id="6d612552ca"><path d="M 219 152 L 258.246094 152 L 258.246094 178 L 219 178 Z M 219 152 " clip-rule="nonzero"/></clipPath><clipPath id="fa7c9632f8"><path d="M 116.496094 152 L 220 152 L 220 178 L 116.496094 178 Z M 116.496094 152 " clip-rule="nonzero"/></clipPath><clipPath id="80b049e196"><path d="M 219 170 L 258.246094 170 L 258.246094 186.042969 L 219 186.042969 Z M 219 170 " clip-rule="nonzero"/></clipPath><clipPath id="da23a241d8"><path d="M 116.496094 170 L 220 170 L 220 186.042969 L 116.496094 186.042969 Z M 116.496094 170 " clip-rule="nonzero"/></clipPath></defs><g clip-path="url(#607e41c03b)"><path fill="#ffffff" d="M 258.226562 121.359375 L 258.226562 128.703125 L 219.824219 84.15625 L 219.824219 66.738281 Z M 258.226562 121.359375 " fill-opacity="1" fill-rule="nonzero"/></g><g clip-path="url(#235fdfe537)"><path fill="#d89e1a" d="M 219.824219 66.738281 L 219.824219 84.15625 L 150.714844 128.703125 L 116.5625 128.703125 L 116.5625 124.152344 L 150.714844 121.359375 Z M 219.824219 66.738281 " fill-opacity="1" fill-rule="nonzero"/></g><g clip-path="url(#adcf8f1b2b)"><path fill="#ffffff" d="M 258.226562 135.007812 L 258.226562 141.472656 L 219.824219 104.789062 L 219.824219 91.597656 Z M 258.226562 135.007812 " fill-opacity="1" fill-rule="nonzero"/></g><g clip-path="url(#1a27b7a3fc)"><path fill="#d89e1a" d="M 219.824219 91.597656 L 219.824219 104.789062 L 150.714844 141.472656 L 116.5625 141.472656 L 116.5625 137.117188 L 150.714844 134.519531 Z M 219.824219 91.597656 " fill-opacity="1" fill-rule="nonzero"/></g><g clip-path="url(#89696746cc)"><path fill="#ffffff" d="M 258.226562 148.621094 L 258.226562 154.242188 L 219.824219 125.453125 L 219.824219 112.25 Z M 258.226562 148.621094 " fill-opacity="1" fill-rule="nonzero"/></g><g clip-path="url(#e14fa5b81f)"><path fill="#d89e1a" d="M 219.824219 112.25 L 219.824219 125.453125 L 150.714844 154.242188 L 116.5625 154.242188 L 116.5625 150.117188 L 150.714844 147.710938 Z M 219.824219 112.25 " fill-opacity="1" fill-rule="nonzero"/></g><g clip-path="url(#89d14a7569)"><path fill="#ffffff" d="M 258.226562 161.691406 L 258.226562 166.464844 L 219.824219 145.507812 L 219.824219 132.445312 Z M 258.226562 161.691406 " fill-opacity="1" fill-rule="nonzero"/></g><g clip-path="url(#a01223514a)"><path fill="#d89e1a" d="M 219.824219 132.445312 L 219.824219 145.507812 L 150.714844 166.464844 L 116.5625 166.464844 L 116.5625 162.503906 L 150.714844 160.292969 Z M 219.824219 132.445312 " fill-opacity="1" fill-rule="nonzero"/></g><g clip-path="url(#6d612552ca)"><path fill="#ffffff" d="M 258.226562 173.308594 L 258.226562 177.207031 L 219.824219 164.113281 L 219.824219 152.546875 Z M 258.226562 173.308594 " fill-opacity="1" fill-rule="nonzero"/></g><g clip-path="url(#fa7c9632f8)"><path fill="#d89e1a" d="M 219.824219 152.546875 L 219.824219 164.113281 L 150.714844 177.207031 L 116.5625 177.207031 L 116.5625 173.441406 L 150.714844 171.457031 Z M 219.824219 152.546875 " fill-opacity="1" fill-rule="nonzero"/></g><g clip-path="url(#80b049e196)"><path fill="#ffffff" d="M 258.226562 183.101562 L 258.226562 186.125 L 219.824219 180.925781 L 219.824219 170.789062 Z M 258.226562 183.101562 " fill-opacity="1" fill-rule="nonzero"/></g><g clip-path="url(#da23a241d8)"><path fill="#d89e1a" d="M 219.824219 170.789062 L 219.824219 180.925781 L 150.714844 186.125 L 116.5625 186.125 L 116.5625 183.355469 L 150.714844 181.765625 Z M 219.824219 170.789062 " fill-opacity="1" fill-rule="nonzero"/></g><g fill="#ffffff" fill-opacity="1"><g transform="translate(137.887307, 232.807445)"><g><path d="M 3.796875 -22.109375 L 3.796875 0 L 18.078125 0 L 18.078125 -1.734375 L 6.671875 -1.734375 L 6.671875 -11 L 16.453125 -11 L 16.453125 -12.453125 L 6.671875 -12.453125 L 6.671875 -20.375 L 18.078125 -20.375 L 18.078125 -22.109375 Z M 3.796875 -22.109375 "/></g></g></g><g fill="#ffffff" fill-opacity="1"><g transform="translate(162.622778, 232.807445)"><g><path d="M 16.078125 -6.515625 L 19.109375 0 L 22.171875 0 L 11.875 -22.109375 L 10.296875 -22.109375 L 0.953125 0 L 2.40625 0 L 5.1875 -6.515625 Z M 15.421875 -7.9375 L 5.78125 -7.9375 L 10.328125 -18.578125 L 10.453125 -18.578125 Z M 15.421875 -7.9375 "/></g></g></g><g fill="#ffffff" fill-opacity="1"><g transform="translate(191.464727, 232.807445)"><g><path d="M 1.171875 -5.59375 C 1.210938 -4.6875 1.445312 -3.863281 1.875 -3.125 C 2.3125 -2.382812 2.898438 -1.753906 3.640625 -1.234375 C 4.390625 -0.722656 5.269531 -0.328125 6.28125 -0.046875 C 7.289062 0.234375 8.398438 0.375 9.609375 0.375 C 10.828125 0.375 11.925781 0.226562 12.90625 -0.0625 C 13.882812 -0.351562 14.71875 -0.769531 15.40625 -1.3125 C 16.101562 -1.863281 16.640625 -2.53125 17.015625 -3.3125 C 17.398438 -4.09375 17.59375 -4.957031 17.59375 -5.90625 C 17.59375 -7.207031 17.265625 -8.273438 16.609375 -9.109375 C 15.960938 -9.941406 15.148438 -10.632812 14.171875 -11.1875 C 13.191406 -11.75 12.125 -12.21875 10.96875 -12.59375 C 9.820312 -12.976562 8.757812 -13.378906 7.78125 -13.796875 C 6.800781 -14.222656 5.984375 -14.707031 5.328125 -15.25 C 4.679688 -15.800781 4.359375 -16.53125 4.359375 -17.4375 C 4.359375 -17.945312 4.46875 -18.421875 4.6875 -18.859375 C 4.90625 -19.304688 5.226562 -19.691406 5.65625 -20.015625 C 6.09375 -20.335938 6.628906 -20.597656 7.265625 -20.796875 C 7.898438 -21.003906 8.628906 -21.109375 9.453125 -21.109375 C 10.816406 -21.109375 11.976562 -20.816406 12.9375 -20.234375 C 13.894531 -19.648438 14.457031 -18.738281 14.625 -17.5 L 16.78125 -17.5 C 16.65625 -18.28125 16.367188 -18.976562 15.921875 -19.59375 C 15.484375 -20.21875 14.925781 -20.742188 14.25 -21.171875 C 13.570312 -21.609375 12.804688 -21.9375 11.953125 -22.15625 C 11.097656 -22.382812 10.207031 -22.5 9.28125 -22.5 C 8.3125 -22.5 7.390625 -22.367188 6.515625 -22.109375 C 5.648438 -21.859375 4.882812 -21.488281 4.21875 -21 C 3.550781 -20.519531 3.019531 -19.910156 2.625 -19.171875 C 2.238281 -18.441406 2.046875 -17.601562 2.046875 -16.65625 C 2.046875 -15.40625 2.363281 -14.398438 3 -13.640625 C 3.632812 -12.890625 4.429688 -12.257812 5.390625 -11.75 C 6.347656 -11.25 7.382812 -10.816406 8.5 -10.453125 C 9.613281 -10.097656 10.648438 -9.691406 11.609375 -9.234375 C 12.566406 -8.785156 13.359375 -8.234375 13.984375 -7.578125 C 14.617188 -6.929688 14.9375 -6.054688 14.9375 -4.953125 C 14.9375 -3.585938 14.4375 -2.585938 13.4375 -1.953125 C 12.4375 -1.328125 11.109375 -1.015625 9.453125 -1.015625 C 8.117188 -1.015625 7.050781 -1.1875 6.25 -1.53125 C 5.457031 -1.875 4.847656 -2.285156 4.421875 -2.765625 C 4.003906 -3.253906 3.71875 -3.757812 3.5625 -4.28125 C 3.414062 -4.800781 3.332031 -5.238281 3.3125 -5.59375 Z M 1.171875 -5.59375 "/></g></g></g><g fill="#ffffff" fill-opacity="1"><g transform="translate(216.926738, 232.807445)"><g><path d="M 0.953125 -22.109375 L 8.59375 -8.375 L 8.59375 0 L 11.46875 0 L 11.46875 -8.65625 L 19.234375 -22.109375 L 17.53125 -22.109375 L 10.78125 -10.453125 L 10.640625 -10.453125 L 4.203125 -22.109375 Z M 0.953125 -22.109375 "/></g></g></g><g fill="#ffffff" fill-opacity="1"><g transform="translate(111.670686, 273.856099)"><g><path d="M 3.796875 -22.109375 L 3.796875 0 L 18.078125 0 L 18.078125 -1.734375 L 6.671875 -1.734375 L 6.671875 -11 L 16.453125 -11 L 16.453125 -12.453125 L 6.671875 -12.453125 L 6.671875 -20.375 L 18.078125 -20.375 L 18.078125 -22.109375 Z M 3.796875 -22.109375 "/></g></g></g><g fill="#ffffff" fill-opacity="1"><g transform="translate(136.406156, 273.856099)"><g><path d="M 1.171875 -5.59375 C 1.210938 -4.6875 1.445312 -3.863281 1.875 -3.125 C 2.3125 -2.382812 2.898438 -1.753906 3.640625 -1.234375 C 4.390625 -0.722656 5.269531 -0.328125 6.28125 -0.046875 C 7.289062 0.234375 8.398438 0.375 9.609375 0.375 C 10.828125 0.375 11.925781 0.226562 12.90625 -0.0625 C 13.882812 -0.351562 14.71875 -0.769531 15.40625 -1.3125 C 16.101562 -1.863281 16.640625 -2.53125 17.015625 -3.3125 C 17.398438 -4.09375 17.59375 -4.957031 17.59375 -5.90625 C 17.59375 -7.207031 17.265625 -8.273438 16.609375 -9.109375 C 15.960938 -9.941406 15.148438 -10.632812 14.171875 -11.1875 C 13.191406 -11.75 12.125 -12.21875 10.96875 -12.59375 C 9.820312 -12.976562 8.757812 -13.378906 7.78125 -13.796875 C 6.800781 -14.222656 5.984375 -14.707031 5.328125 -15.25 C 4.679688 -15.800781 4.359375 -16.53125 4.359375 -17.4375 C 4.359375 -17.945312 4.46875 -18.421875 4.6875 -18.859375 C 4.90625 -19.304688 5.226562 -19.691406 5.65625 -20.015625 C 6.09375 -20.335938 6.628906 -20.597656 7.265625 -20.796875 C 7.898438 -21.003906 8.628906 -21.109375 9.453125 -21.109375 C 10.816406 -21.109375 11.976562 -20.816406 12.9375 -20.234375 C 13.894531 -19.648438 14.457031 -18.738281 14.625 -17.5 L 16.78125 -17.5 C 16.65625 -18.28125 16.367188 -18.976562 15.921875 -19.59375 C 15.484375 -20.21875 14.925781 -20.742188 14.25 -21.171875 C 13.570312 -21.609375 12.804688 -21.9375 11.953125 -22.15625 C 11.097656 -22.382812 10.207031 -22.5 9.28125 -22.5 C 8.3125 -22.5 7.390625 -22.367188 6.515625 -22.109375 C 5.648438 -21.859375 4.882812 -21.488281 4.21875 -21 C 3.550781 -20.519531 3.019531 -19.910156 2.625 -19.171875 C 2.238281 -18.441406 2.046875 -17.601562 2.046875 -16.65625 C 2.046875 -15.40625 2.363281 -14.398438 3 -13.640625 C 3.632812 -12.890625 4.429688 -12.257812 5.390625 -11.75 C 6.347656 -11.25 7.382812 -10.816406 8.5 -10.453125 C 9.613281 -10.097656 10.648438 -9.691406 11.609375 -9.234375 C 12.566406 -8.785156 13.359375 -8.234375 13.984375 -7.578125 C 14.617188 -6.929688 14.9375 -6.054688 14.9375 -4.953125 C 14.9375 -3.585938 14.4375 -2.585938 13.4375 -1.953125 C 12.4375 -1.328125 11.109375 -1.015625 9.453125 -1.015625 C 8.117188 -1.015625 7.050781 -1.1875 6.25 -1.53125 C 5.457031 -1.875 4.847656 -2.285156 4.421875 -2.765625 C 4.003906 -3.253906 3.71875 -3.757812 3.5625 -4.28125 C 3.414062 -4.800781 3.332031 -5.238281 3.3125 -5.59375 Z M 1.171875 -5.59375 "/></g></g></g><g fill="#ffffff" fill-opacity="1"><g transform="translate(161.868166, 273.856099)"><g><path d="M 11.96875 0 L 11.96875 -20.375 L 20.4375 -20.375 L 20.4375 -22.109375 L 0.625 -22.109375 L 0.625 -20.375 L 9.09375 -20.375 L 9.09375 0 Z M 11.96875 0 "/></g></g></g><g fill="#ffffff" fill-opacity="1"><g transform="translate(188.656886, 273.856099)"><g><path d="M 16.078125 -6.515625 L 19.109375 0 L 22.171875 0 L 11.875 -22.109375 L 10.296875 -22.109375 L 0.953125 0 L 2.40625 0 L 5.1875 -6.515625 Z M 15.421875 -7.9375 L 5.78125 -7.9375 L 10.328125 -18.578125 L 10.453125 -18.578125 Z M 15.421875 -7.9375 "/></g></g></g><g fill="#ffffff" fill-opacity="1"><g transform="translate(217.498834, 273.856099)"><g><path d="M 11.96875 0 L 11.96875 -20.375 L 20.4375 -20.375 L 20.4375 -22.109375 L 0.625 -22.109375 L 0.625 -20.375 L 9.09375 -20.375 L 9.09375 0 Z M 11.96875 0 "/></g></g></g><g fill="#ffffff" fill-opacity="1"><g transform="translate(244.287557, 273.856099)"><g><path d="M 3.796875 -22.109375 L 3.796875 0 L 18.078125 0 L 18.078125 -1.734375 L 6.671875 -1.734375 L 6.671875 -11 L 16.453125 -11 L 16.453125 -12.453125 L 6.671875 -12.453125 L 6.671875 -20.375 L 18.078125 -20.375 L 18.078125 -22.109375 Z M 3.796875 -22.109375 "/></g></g></g><g fill="#ffffff" fill-opacity="1"><g transform="translate(160.167006, 304.627146)"><g><path d="M 6.671875 -4 L 7.75 -4 L 7.75 -0.921875 C 7.351562 -0.585938 6.894531 -0.332031 6.375 -0.15625 C 5.863281 0.0078125 5.320312 0.09375 4.75 0.09375 C 3.957031 0.09375 3.238281 -0.078125 2.59375 -0.421875 C 1.957031 -0.773438 1.457031 -1.257812 1.09375 -1.875 C 0.726562 -2.488281 0.546875 -3.179688 0.546875 -3.953125 C 0.546875 -4.722656 0.726562 -5.414062 1.09375 -6.03125 C 1.457031 -6.644531 1.957031 -7.125 2.59375 -7.46875 C 3.238281 -7.820312 3.96875 -8 4.78125 -8 C 5.414062 -8 5.988281 -7.894531 6.5 -7.6875 C 7.019531 -7.476562 7.457031 -7.175781 7.8125 -6.78125 L 7.109375 -6.078125 C 6.484375 -6.691406 5.722656 -7 4.828125 -7 C 4.222656 -7 3.679688 -6.867188 3.203125 -6.609375 C 2.722656 -6.347656 2.347656 -5.984375 2.078125 -5.515625 C 1.804688 -5.054688 1.671875 -4.535156 1.671875 -3.953125 C 1.671875 -3.378906 1.804688 -2.859375 2.078125 -2.390625 C 2.347656 -1.929688 2.722656 -1.570312 3.203125 -1.3125 C 3.679688 -1.050781 4.21875 -0.921875 4.8125 -0.921875 C 5.519531 -0.921875 6.140625 -1.085938 6.671875 -1.421875 Z M 6.671875 -4 "/></g></g></g><g fill="#ffffff" fill-opacity="1"><g transform="translate(171.672558, 304.627146)"><g><path d="M 6.46875 0 L 4.765625 -2.421875 C 4.554688 -2.410156 4.390625 -2.40625 4.265625 -2.40625 L 2.3125 -2.40625 L 2.3125 0 L 1.1875 0 L 1.1875 -7.90625 L 4.265625 -7.90625 C 5.296875 -7.90625 6.101562 -7.660156 6.6875 -7.171875 C 7.269531 -6.679688 7.5625 -6.007812 7.5625 -5.15625 C 7.5625 -4.539062 7.410156 -4.019531 7.109375 -3.59375 C 6.816406 -3.164062 6.390625 -2.851562 5.828125 -2.65625 L 7.703125 0 Z M 4.234375 -3.359375 C 4.953125 -3.359375 5.5 -3.515625 5.875 -3.828125 C 6.25 -4.140625 6.4375 -4.582031 6.4375 -5.15625 C 6.4375 -5.726562 6.25 -6.164062 5.875 -6.46875 C 5.5 -6.769531 4.953125 -6.921875 4.234375 -6.921875 L 2.3125 -6.921875 L 2.3125 -3.359375 Z M 4.234375 -3.359375 "/></g></g></g><g fill="#ffffff" fill-opacity="1"><g transform="translate(182.669509, 304.627146)"><g><path d="M 4.75 0.09375 C 3.957031 0.09375 3.238281 -0.078125 2.59375 -0.421875 C 1.957031 -0.773438 1.457031 -1.257812 1.09375 -1.875 C 0.726562 -2.5 0.546875 -3.191406 0.546875 -3.953125 C 0.546875 -4.710938 0.726562 -5.398438 1.09375 -6.015625 C 1.457031 -6.640625 1.957031 -7.125 2.59375 -7.46875 C 3.238281 -7.820312 3.957031 -8 4.75 -8 C 5.539062 -8 6.253906 -7.820312 6.890625 -7.46875 C 7.535156 -7.125 8.039062 -6.644531 8.40625 -6.03125 C 8.769531 -5.414062 8.953125 -4.722656 8.953125 -3.953125 C 8.953125 -3.179688 8.769531 -2.488281 8.40625 -1.875 C 8.039062 -1.257812 7.535156 -0.773438 6.890625 -0.421875 C 6.253906 -0.078125 5.539062 0.09375 4.75 0.09375 Z M 4.75 -0.921875 C 5.332031 -0.921875 5.851562 -1.050781 6.3125 -1.3125 C 6.78125 -1.570312 7.144531 -1.929688 7.40625 -2.390625 C 7.675781 -2.859375 7.8125 -3.378906 7.8125 -3.953125 C 7.8125 -4.523438 7.675781 -5.039062 7.40625 -5.5 C 7.144531 -5.96875 6.78125 -6.332031 6.3125 -6.59375 C 5.851562 -6.863281 5.332031 -7 4.75 -7 C 4.175781 -7 3.648438 -6.863281 3.171875 -6.59375 C 2.703125 -6.332031 2.332031 -5.96875 2.0625 -5.5 C 1.800781 -5.039062 1.671875 -4.523438 1.671875 -3.953125 C 1.671875 -3.378906 1.800781 -2.859375 2.0625 -2.390625 C 2.332031 -1.929688 2.703125 -1.570312 3.171875 -1.3125 C 3.648438 -1.050781 4.175781 -0.921875 4.75 -0.921875 Z M 4.75 -0.921875 "/></g></g></g><g fill="#ffffff" fill-opacity="1"><g transform="translate(194.943609, 304.627146)"><g><path d="M 4.46875 0.09375 C 3.40625 0.09375 2.582031 -0.207031 2 -0.8125 C 1.414062 -1.414062 1.125 -2.28125 1.125 -3.40625 L 1.125 -7.90625 L 2.25 -7.90625 L 2.25 -3.453125 C 2.25 -1.765625 2.988281 -0.921875 4.46875 -0.921875 C 5.195312 -0.921875 5.75 -1.128906 6.125 -1.546875 C 6.507812 -1.960938 6.703125 -2.597656 6.703125 -3.453125 L 6.703125 -7.90625 L 7.8125 -7.90625 L 7.8125 -3.40625 C 7.8125 -2.269531 7.515625 -1.398438 6.921875 -0.796875 C 6.335938 -0.203125 5.519531 0.09375 4.46875 0.09375 Z M 4.46875 0.09375 "/></g></g></g><g fill="#ffffff" fill-opacity="1"><g transform="translate(206.663896, 304.627146)"><g><path d="M 4.265625 -7.90625 C 5.296875 -7.90625 6.101562 -7.660156 6.6875 -7.171875 C 7.269531 -6.679688 7.5625 -6.007812 7.5625 -5.15625 C 7.5625 -4.289062 7.269531 -3.613281 6.6875 -3.125 C 6.101562 -2.632812 5.296875 -2.390625 4.265625 -2.390625 L 2.3125 -2.390625 L 2.3125 0 L 1.1875 0 L 1.1875 -7.90625 Z M 4.234375 -3.375 C 4.953125 -3.375 5.5 -3.523438 5.875 -3.828125 C 6.25 -4.140625 6.4375 -4.582031 6.4375 -5.15625 C 6.4375 -5.726562 6.25 -6.164062 5.875 -6.46875 C 5.5 -6.769531 4.953125 -6.921875 4.234375 -6.921875 L 2.3125 -6.921875 L 2.3125 -3.375 Z M 4.234375 -3.375 "/></g></g></g></svg>